<svg xmlns="http://www.w3.org/2000/svg" viewBox="0 0 1280 280">
<defs>
<radialGradient id="g" cx="18%" cy="35%" r="95%">
<stop offset="0" stop-color="#161b22"></stop>
<stop offset="1" stop-color="#0d1117"></stop>
</radialGradient>
<linearGradient id="r" x1="0" x2="1">
<stop stop-color="#e10600"></stop>
<stop offset="1" stop-color="#ff4b3a"></stop>
</linearGradient>
<filter id="glow" x="-20%" y="-20%" width="140%" height="140%">
<feGaussianBlur stdDeviation="8"></feGaussianBlur>
</filter>
</defs>

<rect width="1280" height="280" rx="16" fill="url(#g)"></rect>

<g opacity=".08" stroke="#fff">
<path d="M820 25H1245"></path>
<path d="M760 75H1245"></path>
<path d="M690 125H1245"></path>
<path d="M760 175H1245"></path>
<path d="M860 225H1245"></path>
</g>

<circle cx="1035" cy="138" r="60" fill="#e10600" opacity=".12" filter="url(#glow)"></circle>

<text x="70" y="105" font-family="-apple-system,BlinkMacSystemFont,'Segoe UI',Helvetica,Arial,sans-serif" font-size="64" font-weight="500" fill="#f0f6fc">Arts44</text>

<text x="70" y="148" font-family="-apple-system,BlinkMacSystemFont,'Segoe UI',Helvetica,Arial,sans-serif" font-size="24" fill="#8b949e">Web &amp; app development</text>

<rect x="70" y="170" width="130" height="5" rx="3" fill="url(#r)"></rect>

<rect x="70" y="192" width="88" height="28" rx="14" fill="#161b22" stroke="#30363d"></rect>
<text x="114" y="211" text-anchor="middle" font-family="-apple-system,BlinkMacSystemFont,'Segoe UI',Helvetica,Arial,sans-serif" font-size="15" fill="#f0f6fc">🇧🇪 Belgium</text>

<g stroke-linecap="round">
<line x1="760" y1="58" x2="1180" y2="58" stroke="#3d444d" stroke-width="2"></line>
<line x1="820" y1="83" x2="1220" y2="83" stroke="#5d6570" stroke-width="5"></line>
<line x1="705" y1="112" x2="1185" y2="112" stroke="url(#r)" stroke-width="3"></line>
<line x1="865" y1="137" x2="1235" y2="137" stroke="#4c535d" stroke-width="2"></line>
<line x1="790" y1="162" x2="1210" y2="162" stroke="#6a737d" stroke-width="6"></line>
<line x1="885" y1="188" x2="1240" y2="188" stroke="url(#r)" stroke-width="2"></line>
<line x1="840" y1="214" x2="1190" y2="214" stroke="#505862" stroke-width="4"></line>
<line x1="930" y1="236" x2="1240" y2="236" stroke="#3d444d" stroke-width="2"></line>
</g>

<circle cx="1168" cy="112" r="2.5" fill="#e10600"></circle>
<circle cx="1198" cy="188" r="2.5" fill="#e10600"></circle>

<path d="M650 280C760 180 920 150 1080 170" fill="none" stroke="#fff" opacity=".035" stroke-width="2"></path>
<path d="M730 280C820 205 960 185 1160 205" fill="none" stroke="#fff" opacity=".03" stroke-width="2"></path>

</svg>