<svg xmlns="http://www.w3.org/2000/svg" viewBox="0 0 1280 280" width="1280" height="280" role="img" aria-label="Arts44 — web and app development, Belgium"><title>Arts44 — web &amp; app development · Belgium</title><rect width="1280" height="280" rx="16" fill="#0d1117"/><g transform="translate(560 -76) scale(1.72)"><g fill="none" stroke-linejoin="round"><path d="M218 152 L84 143 C71 142 62 136 61 125 L64 107 C66 92 79 81 97 80 L122 77 C133 76 137 70 146 68 C156 66 162 72 170 74 L185 85 C195 92 198 102 195 113 L192 123 C190 133 196 140 208 139 C228 137 247 143 243 153 C240 161 229 156 218 152 Z" stroke="#454e5d" stroke-width="3.4" stroke-linecap="round"/><path d="M177.8 149.3 L100.1 144.1" stroke="#e10600" stroke-width="3.4" stroke-linecap="butt"/></g><g transform="translate(129.56 146.06) rotate(3.84)"><rect x="-3.40" y="-1.70" width="1.70" height="1.70" fill="#ffffff"/><rect x="-3.40" y="0.00" width="1.70" height="1.70" fill="#10151d"/><rect x="-1.70" y="-1.70" width="1.70" height="1.70" fill="#10151d"/><rect x="-1.70" y="0.00" width="1.70" height="1.70" fill="#ffffff"/><rect x="0.00" y="-1.70" width="1.70" height="1.70" fill="#ffffff"/><rect x="0.00" y="0.00" width="1.70" height="1.70" fill="#10151d"/><rect x="1.70" y="-1.70" width="1.70" height="1.70" fill="#10151d"/><rect x="1.70" y="0.00" width="1.70" height="1.70" fill="#ffffff"/></g></g><g font-family="-apple-system, BlinkMacSystemFont, 'Segoe UI', Roboto, Helvetica, Arial, sans-serif"><text x="80" y="148" font-size="76" font-weight="500" fill="#f0f6fc" letter-spacing="-1.5">Arts44</text><text x="82" y="194" font-size="23" font-weight="400" fill="#8b949e">Web &amp; app development · Belgium</text><text x="1200" y="216" font-size="176" font-weight="600" fill="#222b3a" letter-spacing="-8" text-anchor="end">44</text></g><path d="M84 222H168" stroke="#e10600" stroke-width="4" stroke-linecap="round"/></svg>
